<?xml version="1.0" standalone="no"?>
<!DOCTYPE svg PUBLIC "-//W3C//DTD SVG 20010904//EN"
 "http://www.w3.org/TR/2001/REC-SVG-20010904/DTD/svg10.dtd">
<svg version="1.0" xmlns="http://www.w3.org/2000/svg"
 width="512.000000pt" height="512.000000pt" viewBox="0 0 512.000000 512.000000"
 preserveAspectRatio="xMidYMid meet">

<g transform="translate(0.000000,512.000000) scale(0.100000,-0.100000)"
fill="#000000" stroke="none">
<path d="M2640 5112 c0 -6 -11 -87 -25 -182 -14 -95 -25 -180 -25 -190 0 -14
15 -20 78 -30 306 -49 675 -193 942 -370 164 -109 268 -193 404 -328 352 -348
583 -769 691 -1257 18 -86 24 -100 41 -98 49 4 360 57 366 62 4 3 -4 56 -17
117 -189 873 -767 1614 -1567 2007 -253 125 -509 211 -748 252 -52 9 -105 19
-117 22 -13 3 -23 1 -23 -5z"/>
<path d="M784 4620 c-97 -20 -141 -54 -398 -309 -136 -135 -264 -269 -282
-298 -180 -276 -126 -734 158 -1351 319 -690 891 -1386 1548 -1882 387 -292
848 -543 1230 -671 316 -105 613 -135 802 -80 142 41 173 65 455 345 237 236
265 268 294 330 28 60 33 81 33 146 0 65 -5 86 -33 146 -30 64 -59 96 -394
430 -295 294 -372 366 -417 387 -76 37 -147 49 -212 37 -108 -21 -149 -51
-399 -297 -130 -128 -244 -233 -253 -233 -25 0 -260 121 -351 181 -354 230
-755 621 -1012 985 -88 125 -129 194 -188 316 -37 76 -46 103 -40 125 4 18 88
110 235 258 205 206 233 238 260 299 53 115 41 225 -34 339 -19 29 -189 206
-378 394 -308 307 -350 345 -408 372 -71 33 -152 44 -216 31z"/>
<path d="M2587 4071 c-14 -72 -50 -361 -46 -365 2 -3 40 -12 84 -21 513 -106
922 -505 1045 -1019 11 -43 20 -80 22 -81 5 -4 378 62 383 67 7 6 -10 91 -37
183 -180 637 -716 1125 -1370 1248 l-76 14 -5 -26z"/>
</g>
</svg>
